<svg width="24" height="24" viewBox="0 0 24 24" fill="none" xmlns="http://www.w3.org/2000/svg">
<path d="M4.14281 0.25H19.8572C22.0071 0.25 23.75 1.99287 23.75 4.14281V19.8572C23.75 22.0071 22.0071 23.75 19.8572 23.75H4.14281C1.99287 23.75 0.25 22.0071 0.25 19.8572V4.14281C0.25 1.99287 1.99287 0.25 4.14281 0.25Z" stroke="white" stroke-width="0.5"/>
<path d="M19.9516 5.4438C18.2317 5.37019 16.5332 5.84722 15.1031 6.8055C13.673 7.76378 12.5859 9.15332 12 10.772C11.414 9.15332 10.3269 7.76378 8.89683 6.8055C7.46672 5.84722 5.76818 5.37019 4.04827 5.4438C3.99053 6.81929 4.28417 8.18682 4.90149 9.41736C5.51882 10.6479 6.43947 11.7009 7.57659 12.4769C8.15997 12.8776 8.63674 13.4146 8.9655 14.0414C9.29427 14.6681 9.4651 15.3656 9.46316 16.0733V18.5636H14.5373V16.0733C14.5352 15.3656 14.7059 14.6681 15.0346 14.0414C15.3633 13.4147 15.84 12.8776 16.4233 12.4769C17.5608 11.7012 18.4816 10.6483 19.099 9.41764C19.7164 8.18703 20.0098 6.81936 19.9516 5.4438Z" fill="currentColor"/>
<path d="M7.86507 16.0733C7.86746 15.6258 7.76044 15.1844 7.55332 14.7877C7.34621 14.391 7.04528 14.0509 6.67673 13.797C6.17584 13.4552 5.708 13.0673 5.27931 12.6385C4.81575 12.174 4.40084 11.6635 4.04102 11.1147V18.5636H7.86507V16.0733Z" fill="currentColor"/>
<path d="M16.1349 16.0733C16.1325 15.6258 16.2396 15.1844 16.4467 14.7877C16.6538 14.391 16.9547 14.0509 17.3233 13.797C17.8242 13.4552 18.292 13.0673 18.7207 12.6385C19.1842 12.174 19.5992 11.6635 19.959 11.1147V18.5636H16.1349V16.0733Z" fill="currentColor"/>
</svg>
